<?xml version="1.0" encoding="UTF-8"?>
<!-- Generated by Pixelmator Pro 3.6.1 -->
<svg width="1185" height="195" viewBox="0 0 1185 195" xmlns="http://www.w3.org/2000/svg">
    <path id="path7-1-0" fill="#e91e23" stroke="none" d="M 143.966003 93.722 C 143.966003 90.045998 142.419998 86.625999 139.845993 83.998001 C 137.016006 81.107002 133.925003 79.799004 130.067001 79.799004 C 126.464996 79.799004 123.117996 81.112999 120.289001 83.998001 C 117.714996 86.625999 116.431 90.040001 116.431 93.722 C 116.431 97.659004 117.714996 101.078003 120.289001 103.695 C 123.117996 106.598 126.464996 107.900002 130.067001 107.900002 C 133.925003 107.900002 137.016006 106.591003 139.845993 103.695 C 142.425995 101.079002 143.966003 97.659004 143.966003 93.722 L 143.966003 93.722 Z"/>
    <path id="path9-7-6" fill="#02b2e7" stroke="none" d="M 348.830994 86.102211 C 346.002014 83.449036 342.910004 82.127998 339.053009 82.127998 C 335.196014 82.127998 332.104004 83.454079 329.274994 86.102211 C 326.700989 89.018776 325.416992 92.19976 325.416992 96.172951 C 325.416992 100.151192 326.700989 103.333183 329.274994 106.249756 C 332.104004 108.901917 335.450989 110.227997 339.053009 110.227997 C 342.916992 110.227997 346.002014 108.895859 348.830994 106.249756 C 351.404999 103.332176 352.944 100.157257 352.944 96.172951 C 352.954987 92.19976 351.404999 89.018776 348.830994 86.102211 L 348.830994 86.102211 Z"/>
    <path id="path11-4-1" fill="#fabc16" stroke="none" d="M 470.833008 87.119003 C 468.003998 84.228004 464.919006 82.914001 461.054993 82.914001 C 457.451996 82.914001 454.105988 84.228004 451.277008 87.119003 C 448.703003 89.747002 447.419006 93.154999 447.419006 96.836998 C 447.419006 100.774002 448.703003 104.188004 451.277008 106.828003 C 454.105988 109.719002 457.453003 111.020004 461.054993 111.020004 C 464.919006 111.020004 468.003998 109.710999 470.833008 106.828003 C 473.407013 104.187004 474.953003 100.778999 474.953003 96.836998 C 474.953003 93.154999 473.407013 89.747002 470.833008 87.119003 L 470.833008 87.119003 Z"/>
    <path id="path13-0-3" fill="#e91e23" stroke="none" d="M 653.31897 100.364998 C 653.31897 96.428001 652.024231 93.270004 649.422668 90.379997 C 646.570007 87.758003 643.201111 86.181999 639.569031 86.181999 C 635.679749 86.181999 632.56189 87.758003 629.715271 90.379997 C 627.119812 93.271004 625.81897 96.423004 625.81897 100.364998 C 625.81897 104.041 627.119812 107.460999 629.715271 110.350998 C 632.56897 112.979004 635.685791 114.281998 639.569031 114.281998 C 643.207153 114.281998 646.57605 112.973 649.422668 110.350998 C 652.024231 107.460999 653.31897 104.041 653.31897 100.364998 L 653.31897 100.364998 Z"/>
    <path id="path15-9-8" fill="#02b2e7" stroke="none" d="M 843.461731 87.903 C 840.603027 85.275002 837.228027 83.705002 833.601929 83.705002 C 829.705688 83.705002 826.59491 85.275002 823.742249 87.903 C 821.146729 90.793999 819.85199 93.945999 819.85199 97.889 C 819.85199 101.57 821.146729 104.984001 823.742249 107.874001 C 826.600952 110.501999 829.711731 111.805 833.601929 111.805 C 837.235107 111.805 840.60907 110.496002 843.461731 107.874001 C 846.057251 104.983002 847.35199 101.576004 847.35199 97.889 C 847.35199 93.945999 846.057251 90.793999 843.461731 87.903 L 843.461731 87.903 Z"/>
    <path id="path17-4-9" fill="#fabc16" stroke="none" d="M 1062.510986 86.626999 C 1059.94397 83.737 1056.589966 82.423004 1052.994019 82.423004 C 1049.135986 82.423004 1045.78894 83.737 1043.222046 86.626999 C 1040.391968 89.256004 1039.102051 92.664001 1039.102051 96.345001 C 1039.102051 100.282997 1040.391968 103.695999 1043.222046 106.336998 C 1045.795044 109.226997 1049.142944 110.528999 1052.994019 110.528999 C 1056.595947 110.528999 1059.948975 109.220001 1062.510986 106.336998 C 1065.347046 103.695 1066.630981 100.288002 1066.630981 96.345001 C 1066.619995 92.664001 1065.339966 89.256004 1062.510986 86.626999 L 1062.510986 86.626999 Z"/>
    <path id="Path" fill="#F8F8F4" fill-rule="evenodd" stroke="none" d="M 596.828979 69.744003 L 587.729004 69.744003 C 586.698975 69.284004 585.559021 69.124001 584.439026 69.274002 L 580.989014 69.744003 L 531.309021 69.744003 L 531.31897 69.634003 C 531.768982 67.153999 532.778992 66.363998 534.348999 65.863998 C 534.539001 65.804001 534.729004 65.733994 534.908997 65.653992 C 543.979004 61.753998 556.908997 58.464005 574.408997 55.604004 C 575.189026 55.513992 575.919006 55.274002 576.578979 54.914001 C 578.619019 53.813995 579.898987 51.593994 579.758972 49.203995 L 579.758972 41.824005 C 579.81897 39.244003 578.218994 36.813995 575.658997 35.923996 C 558.848999 30.113998 542.468994 32.024002 526.968994 41.613998 C 521.619019 44.294006 516.948975 49.673996 512.689026 58.044006 L 512.578979 58.263992 L 512.479004 58.483994 L 503.838989 78.464005 C 501.688995 82.674004 500.678986 88.104004 500.678986 95.524002 C 500.678986 100.234001 499.968994 104.303001 498.57901 107.613998 L 498.438995 107.994003 C 496.459015 113.774002 495.528992 123.584999 495.528992 138.863998 C 495.528992 140.593994 496.269012 142.244003 497.55899 143.393005 C 498.678986 144.404007 500.128998 144.944 501.618988 144.944 C 501.838989 144.944 502.05899 144.934006 502.278992 144.914001 C 519.729004 143.005005 533.609009 140.533997 544.718994 137.374008 C 561.208984 132.675003 574.129028 125.804001 583.098999 116.925003 C 584.848999 115.195 585.379028 112.573997 584.448975 110.284004 C 583.508972 108.004997 581.289001 106.514 578.81897 106.514 C 570.939026 106.514 561.698975 108.104004 551.348999 111.234001 L 551.218994 111.274002 L 551.119019 111.303001 L 526.458984 119.613998 C 524.348999 119.425003 523.549011 118.534004 522.908997 117.034004 L 522.778992 116.744003 C 521.81897 114.804001 521.758972 112.543999 522.578979 110.004997 C 527.629028 102.004997 529.218994 100.414001 529.479004 100.175003 L 529.758972 99.934998 C 532.379028 97.414001 535.189026 96.675003 538.848999 97.525002 C 539.299011 97.625 539.758972 97.684998 540.218994 97.684998 C 544.098999 97.684998 546.278992 94.735001 547.619019 92.705002 L 551.689026 93.145004 C 553.619019 93.495003 558.499023 94.245003 562.109009 91.044998 C 563.898987 89.855003 569.289001 88.334999 571.299011 87.775002 C 575.939026 86.705002 580.078979 84.735001 583.638977 81.915001 L 585.458984 81.915001 L 587.06897 82.355003 C 594.01001 85.154999 598.690002 82.334999 600.890015 80.375 C 602.249023 79.154999 602.940002 77.455002 602.919006 75.764999 C 602.880005 72.433998 600.169006 69.744003 596.828979 69.744003 Z M 792.778992 5.983994 C 790.309021 6.154007 788.189026 7.804001 787.419006 10.164001 C 784.710022 18.444 779.898987 30.513992 773.489014 45.063995 C 766.968994 59.834 762.018982 72.234001 759.169006 80.933998 L 754.26001 94.433998 C 752.828979 96.584999 751.789978 96.814003 749.200012 95.734001 C 735.578979 90.113998 725.328979 82.153999 718.729004 72.064003 L 711.148987 56.873993 C 711.078979 56.723999 710.999023 56.574005 710.908997 56.434006 C 708.539978 52.223999 705.469971 47.893997 700.76001 47.263992 C 698.119995 46.914001 695.599976 47.824005 693.640015 49.824005 L 693.570007 49.893997 C 684.919983 59.033997 679.440002 72.014 677.291016 88.484001 C 677.260986 88.714005 677.23999 88.933998 677.23999 89.153999 L 673.929993 129.643005 C 673.908997 129.792999 673.900024 129.944 673.900024 130.093994 C 673.830017 132.623001 675.330017 134.863998 677.549988 135.834 L 677.960022 137.292999 C 678.01001 137.514008 678.078979 137.733002 678.169006 137.953003 C 678.278992 138.242996 678.408997 138.522995 678.559998 138.783005 C 679.690002 140.802994 681.690002 142.072998 683.960022 142.203003 L 684.349976 142.212997 C 686.690002 142.212997 688.820007 140.992996 690.22998 138.822998 L 690.338989 138.653 C 693.049988 134.162994 694.960022 128.572998 696.028992 122.032997 C 696.059021 121.883003 696.06897 121.733002 696.088989 121.584 L 698.349976 105.953003 L 698.380005 105.743004 L 698.400024 105.493004 C 699 98.563004 700.159973 95.962997 700.541016 95.273003 C 701.169983 94.083 701.280029 94.103004 702.27002 94.243004 C 702.559998 94.282997 702.849976 94.313004 703.150024 94.313004 C 706.580017 94.313004 710.359985 95.532997 714.070007 97.853004 L 714.390015 98.032997 C 717.440002 99.693001 721.088989 102.623001 725.869995 107.243004 L 738.658997 120.303001 L 738.749023 120.392998 L 738.809998 120.462997 C 744.929993 126.373001 749.640015 130.192993 754.059998 132.843994 C 754.999023 133.404007 756.080017 133.703003 757.179993 133.703003 C 766.338989 133.703003 770.98999 130.772995 770.98999 124.993004 C 770.98999 114.993004 772.48999 103.563004 775.440002 90.993004 C 777.460999 83.282997 781.059998 71.493004 786.130005 55.953003 C 786.31897 55.343002 786.429993 54.733002 786.429993 54.093002 C 786.440002 53.593002 786.849976 51.442993 788.440002 47.453003 L 788.51001 47.283005 C 789.72998 44.432999 791.158997 40.513 791.499023 37.123001 C 791.849976 36.382996 792.439026 35.313004 793.239014 34.352997 C 793.450012 34.112991 793.630005 33.852997 793.799988 33.582993 L 797.278992 28.253006 C 797.359009 28.123001 797.439026 27.992996 797.508972 27.863007 C 801.229004 21.822998 801.629028 15.432999 798.66803 9.373001 C 797.578979 7.154007 795.229004 5.813995 792.778992 5.983994 Z M 961.169006 101.073997 L 945.469971 105.004997 C 938.778992 106.595001 933.640015 108.164001 930.039978 109.734001 C 927.469971 109.734001 924.890015 107.633003 921.799988 103.164001 C 920.258972 101.073997 918.710022 99.754997 917.179016 99.484001 C 915.890015 99.484001 914.338989 100.014 912.278992 101.073997 L 906.098999 103.433998 L 897.609009 103.163002 L 906.870972 78.473 C 910.210999 68.493004 912.528992 60.093002 913.820007 53.792999 C 918.189026 55.362991 924.890015 56.153 933.120972 56.153 L 953.960999 56.932999 C 961.690002 57.722992 967.609009 60.093002 971.721008 63.502991 C 977.130981 67.973 980.471008 74.542999 982.01001 83.733002 C 979.950012 91.613998 973.008972 97.392998 961.169006 101.073997 Z M 981.857971 47.384003 C 968.499023 37.153992 955.049011 33.173996 941.869995 35.563995 L 921.229004 33.304001 C 912.778015 32.223999 905.41803 32.153992 899.937988 33.084 C 898.31897 33.363998 896.888977 34.274002 895.958984 35.613998 C 895.026978 36.953995 894.66803 38.623993 894.979004 40.223999 C 896.888977 50.214005 895.528015 61.613998 890.927979 74.124001 L 877.40802 107.464005 C 873.578003 114.834999 872.557983 122.815002 874.448975 130.574005 L 874.487976 130.733994 L 874.549011 130.923996 L 879.677979 148.483994 C 880.437988 151.074005 882.81897 152.863998 885.518005 152.863998 L 890.66803 152.863998 C 894.026978 152.863998 896.747986 150.134003 896.747986 146.774002 L 896.747986 134.404007 C 897.338013 134.302994 897.888977 134.132996 898.39801 133.893005 C 905.16803 131.084 917.317993 128.052994 935.458984 124.653999 C 952.958984 121.584999 966.14801 117.704002 975.768005 112.793999 C 976.028015 112.664001 976.268005 112.524002 976.497986 112.355003 C 981.369019 108.945 985.15802 105.254997 987.90802 102.415001 L 988.208984 102.096001 C 992.268005 97.276001 994.289001 93.305 994.518005 89.665001 C 997.489014 73.525002 993.398987 59.175003 982.658997 48.125 C 982.419006 47.854004 982.148987 47.604004 981.857971 47.384003 Z M 1182.550049 93.234001 C 1174.300049 88.543999 1163.290039 86.363998 1150.719971 86.924004 L 1150.560059 86.933998 L 1123.370972 87.164001 L 1123.359009 87.014 L 1123.660034 83.234001 C 1138.301025 71.683998 1152.48999 63.774002 1165.880981 59.694 C 1166.120972 59.613998 1166.370972 59.524002 1166.609985 59.414001 C 1170.939941 57.464005 1173.390991 53.703995 1173.530029 48.824005 C 1173.561035 48.464005 1173.561035 48.104004 1173.52002 47.744003 L 1172.740967 40.123993 C 1172.421021 36.964005 1169.760986 34.643997 1166.621948 34.653992 L 1159.000977 34.653992 C 1158.371948 34.664001 1157.722046 34.744003 1157.090942 34.944 C 1156.381958 35.173996 1155.722046 35.533997 1155.151978 35.994003 C 1146.110962 43.113998 1136.090942 49.944 1125.360962 56.294006 C 1115.531006 60.334 1087.661987 72.064003 1091.222046 91.734001 C 1091.302002 92.183998 1091.43103 92.624001 1091.610962 93.054001 C 1094.171997 99.004997 1098.972046 103.095001 1105.520996 104.892998 C 1105.781006 104.973 1106.062012 105.034004 1106.340942 105.073997 C 1106.621948 105.113998 1106.901978 105.134003 1107.171021 105.142998 L 1122.990967 105.653999 C 1123.260986 105.664001 1123.530029 105.653999 1123.791992 105.633003 L 1141.881958 103.834 L 1157.500977 104.553001 L 1158.68103 106.553001 C 1158.68103 106.613998 1158.641968 106.863998 1158.44104 107.292999 L 1156.751953 110.354004 C 1151.281006 114.844002 1144.642944 118.792999 1136.991943 122.094002 L 1136.781006 122.194 C 1129.531006 125.664001 1122.151978 127.983994 1114.222046 129.294006 C 1112.871948 129.524002 1111.631958 130.194 1110.712036 131.203995 C 1106.18103 136.184006 1103.982056 140.953995 1103.982056 145.813995 C 1103.982056 148.173996 1105.350952 150.324005 1107.491943 151.324005 C 1108.312012 151.703995 1109.19104 151.893005 1110.062012 151.893005 C 1111.472046 151.893005 1112.860962 151.404007 1113.982056 150.473007 C 1118.123047 146.983994 1123.840942 143.712997 1130.982056 140.744003 L 1152.760986 132.904007 L 1152.93103 132.835007 L 1153.110962 132.764999 C 1162.010986 129.065002 1168.651978 125.324997 1173.43103 121.315002 L 1173.520996 121.235001 C 1180.322021 115.285004 1184.381958 107.925003 1185.582031 99.364998 C 1185.918945 96.892998 1184.719971 94.464005 1182.550049 93.234001 Z M 401.229004 26.593994 C 400.898987 26.554001 400.569 26.533997 400.229004 26.533997 L 395.32901 26.533997 C 392.539001 26.483994 389.979004 28.354004 389.289001 31.173996 C 384.319 51.503998 378.398987 82.584 371.188995 126.194 C 371.139008 126.524002 371.109009 126.854004 371.109009 127.184006 C 371.109009 132.962997 375.748993 135.882996 384.919006 135.882996 C 387.868988 135.882996 390.398987 133.774002 390.908997 130.863007 C 391.209015 129.153 392.139008 122.703003 391.509003 110.993004 C 391.509003 107.932999 391.539001 99.443001 392.998993 95.623001 L 393.169006 95.243004 L 404.459015 66.153 L 404.57901 65.822998 L 404.688995 65.492996 C 408.269012 53.042999 408.82901 41.593002 406.32901 31.432999 C 405.838989 28.914001 403.789001 26.964005 401.229004 26.593994 Z M 227.839005 68.304001 C 221.669006 73.554001 216.009003 77.503998 210.339005 80.653999 C 204.429001 83.804001 199.798996 85.384003 196.959 84.594002 C 196.959 77.244003 197.468994 71.723999 198.759003 68.043999 C 200.559006 63.054001 203.908005 58.854004 209.309006 55.964005 C 214.968994 52.813995 220.889008 50.184006 226.809006 47.824005 C 236.069 44.403992 242.248993 43.884003 245.069 46.244003 C 246.630005 47.554001 245.598999 50.184006 241.988998 54.643997 C 238.649002 58.854004 234.018997 63.313995 227.839005 68.304001 Z M 276.729004 106.604004 C 270.199005 106.604004 262.389008 105.244003 252.878998 102.433998 L 229.139008 94.444 L 226.959 91.264 C 226.768997 90.854004 226.628998 90.494003 226.518997 90.194 C 228.518997 87.204002 231.738998 84.274002 236.289001 81.304001 L 253.029007 71.464005 L 253.149002 71.393997 L 253.268997 71.314003 C 260.269012 66.854004 264.819 62.494003 267.188995 58.003998 C 267.259003 57.873993 267.32901 57.733994 267.389008 57.593994 C 270.289001 50.923996 269.088989 43.593994 263.80899 35.804001 C 260.658997 30.863998 254.929001 27.354004 246.789001 25.354004 L 246.608994 25.313995 C 239.529007 23.813995 232.738998 23.824005 226.438995 25.343994 L 226.259003 25.393997 C 225.378998 25.623993 224.589005 26.054001 223.929001 26.604004 C 218.298996 30.944 213.179001 33.723999 208.268997 35.104004 C 203.238998 36.363998 199.279007 35.444 196.169006 32.263992 C 195.128998 31.194 193.798996 30.593994 192.419006 30.464005 C 189.459 30.164001 186.639008 32.084 185.908997 35.074005 L 183.339996 45.554001 C 179.789993 59.473999 175.319 79.543999 170.408997 103.613998 C 164.529007 132.694 160.839996 149.302994 157.679993 160.863998 C 155.320007 168.255005 156.149994 177.755005 160.289993 190.714005 C 161.110001 193.304001 163.509995 194.953995 166.080002 194.953995 C 166.259995 194.953995 166.440002 194.944 166.610001 194.925003 C 169.580002 194.675003 171.990005 192.274994 172.169998 189.214005 L 173.449997 166.973999 L 173.761002 163.184998 C 174.371002 155.785004 174.850998 149.945007 175.681 145.285004 L 175.710999 145.143997 C 178.041 130.154999 183.020996 119.065002 190.511002 112.184998 C 193.651001 110.025002 199.091003 109.624001 206.270996 111.035004 C 211.630997 112.235001 218.800995 114.625 228.130997 118.335999 C 248.511002 126.596001 264.971008 128.375 278.460999 123.785004 C 279.260986 123.555 280.001007 123.154999 280.631012 122.625 C 282.091003 121.404999 282.92099 119.555 282.821014 117.645004 L 282.821014 112.695999 C 282.819 109.334999 280.098999 106.604004 276.729004 106.604004 Z M 98.308998 58.733994 L 86.859001 60.033997 L 86.808998 60.033997 L 37.299 63.944 C 36.808998 63.923996 35.987999 63.744003 34.639 62.363998 C 33.738998 61.444 33.429001 60.684006 33.328999 60.074005 C 36.258999 48.084 40.558998 39.033997 46.118999 33.143997 L 63.159 26.044006 C 69.93 23.494003 76.459 22.024002 81.999001 20.923996 C 84.359001 20.714005 88.109001 19.453995 91.268997 14.194 C 93.918999 10.203995 93.299004 7.123993 92.299004 5.233994 C 90.907997 2.584 88.299004 1.143997 84.528 0.934006 C 75.197998 -1.766006 65.378998 -1.516006 54.528 1.694 C 44.987999 4.554001 37.108002 9.143997 31.089001 15.324005 C 24.938999 19.194 20.629 26.584 17.938999 37.863998 L 17.909 37.983994 L 17.909 38.003998 L 15.099 50.763992 C 13.839 55.653992 12.749 59.084 11.599 61.733994 L 6.089 69.314003 L 5.999 69.444 L 5.929 69.534004 C 1.489 76.113998 2.149 81.744003 3.489 85.314003 C 3.789 86.104004 4.249 86.823997 4.84 87.424004 C 5.15 87.744003 5.68 88.863998 5.68 91.043999 C 5.68 91.344002 5.7 91.634003 5.74 91.924004 C 6.7 98.564003 6.94 106.104004 6.45 114.414001 C 6.23 119.573997 5.32 126.754997 4.17 135.835007 L 3.92 137.824005 L 0.87 161.983994 C 0.84 162.164001 0.82 162.335007 0.81 162.514008 C -0.04 172.604004 -0.22 181.113998 0.27 188.533997 C 0.29 188.813995 0.32 189.085007 0.37 189.345001 C 0.9 192.203995 3.41 194.315002 6.35 194.315002 L 6.76 194.304001 C 9.73 194.104996 12.05 191.815002 12.39 188.964005 L 19.280001 142.124008 L 19.341 141.774002 C 21.66 124.704002 24.561001 109.003998 27.971001 95.124001 C 28.061001 94.753998 28.111 94.384003 28.131001 94.014 C 28.32 93.734001 28.971001 92.964005 30.780001 91.834 C 33.669998 90.264 36.099998 89.384003 38.009998 89.223999 C 38.159 89.214005 38.310001 89.194 38.459999 89.174004 C 43.790001 88.314003 49.459999 86.914001 55.330002 85.014 C 55.560001 84.944 55.779999 84.854004 55.990002 84.753998 L 70.739998 78.524002 L 71 78.414001 C 75.730003 76.323997 80.349998 74.503998 84.730003 72.994003 L 88.459999 72.104004 L 99.68 70.834 C 103.019997 70.454002 105.419998 67.444 105.040001 64.104004 C 104.668999 60.763992 101.649002 58.354004 98.308998 58.733994 Z"/>
</svg>
