<?xml version="1.0" encoding="UTF-8" standalone="no"?>
<!-- Created with Inkscape (http://www.inkscape.org/) -->

<svg
   width="143.52922mm"
   height="113.24174mm"
   viewBox="0 0 143.52922 113.24174"
   version="1.1"
   id="svg1"
   xml:space="preserve"
   inkscape:version="1.4 (86a8ad7, 2024-10-11)"
   sodipodi:docname="lord rings logo.svg"
   xmlns:inkscape="http://www.inkscape.org/namespaces/inkscape"
   xmlns:sodipodi="http://sodipodi.sourceforge.net/DTD/sodipodi-0.dtd"
   xmlns="http://www.w3.org/2000/svg"
   xmlns:svg="http://www.w3.org/2000/svg"><sodipodi:namedview
     id="namedview1"
     pagecolor="#ffffff"
     bordercolor="#E8C87A"
     borderopacity="0.25"
     inkscape:showpageshadow="2"
     inkscape:pageopacity="0.0"
     inkscape:pagecheckerboard="0"
     inkscape:deskcolor="#d1d1d1"
     inkscape:document-units="mm"
     inkscape:zoom="0.53273008"
     inkscape:cx="214.93061"
     inkscape:cy="514.33176"
     inkscape:window-width="1368"
     inkscape:window-height="842"
     inkscape:window-x="-6"
     inkscape:window-y="-6"
     inkscape:window-maximized="1"
     inkscape:current-layer="layer1" /><defs
     id="defs1" /><g
     inkscape:label="Layer 1"
     inkscape:groupmode="layer"
     id="layer1"
     transform="translate(-47.97317,-12.169104)"><path
       style="fill:#E8C87A"
       d="m 87.595064,124.74026 c -0.182639,-0.69841 -1.962,-1.28205 -2.169243,-0.71151 -0.194391,0.53515 -0.595022,0.37917 -2.113344,-0.8228 -1.406871,-1.11375 -4.310821,-4.78535 -5.033016,-6.36349 -0.196387,-0.42915 -0.732978,-1.41526 -1.192425,-2.19138 -0.459446,-0.77611 -0.848154,-1.67194 -0.863795,-1.99072 -0.01564,-0.31879 -0.266564,-0.671 -0.557605,-0.78268 -0.291042,-0.11169 -0.529902,-0.48586 -0.5308,-0.8315 -8.97e-4,-0.34563 -0.488254,-1.14764 -1.083014,-1.78223 -0.594759,-0.63459 -1.148111,-1.5218 -1.229669,-1.97157 -0.132823,-0.73247 -0.0206,-0.81332 1.076039,-0.77524 0.767632,0.0267 1.420133,0.30151 1.749249,0.73684 0.471815,0.62408 0.526057,0.63187 0.536142,0.077 0.0062,-0.33955 -0.147531,-0.61737 -0.341559,-0.61737 -0.194027,0 -0.352777,-0.16944 -0.352777,-0.37655 0,-0.21601 0.300809,-0.28107 0.705555,-0.15261 0.755579,0.23981 0.886197,-0.0504 0.381483,-0.84758 -0.244147,-0.38562 -0.858473,-0.44413 -2.784167,-0.26516 l -2.470897,0.22965 -0.60324,-1.91786 c -0.331782,-1.05482 -0.826948,-2.0037 -1.100368,-2.10862 -0.982818,-0.37714 -6.064979,-0.64727 -7.664608,-0.40739 l -1.633204,0.24491 v 4.86912 c 0,2.67802 0.162106,5.72391 0.360236,6.76864 0.300144,1.58265 0.270721,1.96497 -0.176389,2.2919 -0.838181,0.6129 -0.641641,0.84378 0.71827,0.84378 2.159148,0 4.437878,0.72325 4.313494,1.36907 -0.09785,0.50806 -1.07461,0.5712 -8.835833,0.5712 -7.832967,0 -8.725879,-0.0589 -8.726409,-0.57548 -3.97e-4,-0.38556 0.509713,-0.70397 1.545716,-0.96484 1.701262,-0.42839 3.543541,-2.1976 4.004845,-3.84601 0.148325,-0.53001 0.260744,-8.18679 0.249822,-17.015046 -0.01787,-14.44262 -0.08034,-16.16571 -0.623333,-17.19195 -0.661875,-1.25093 -2.194279,-2.21083 -3.529427,-2.21083 -1.13427,0 -1.83723,-0.81508 -1.176145,-1.36373 0.688493,-0.5714 7.854136,-1.09363 15.095074,-1.10013 8.589925,-0.008 12.178457,0.82796 15.291105,3.5609 0.684492,0.60099 1.244531,1.23234 1.244531,1.403 0,0.17066 -0.782515,0.70682 -1.738923,1.19147 -2.419956,1.22629 -2.625322,1.71592 -0.591803,1.41097 1.104643,-0.16565 1.62517,-0.11788 1.62517,0.14913 0,0.21606 0.177266,0.39283 0.393923,0.39283 0.22024,0 0.312573,-0.31108 0.209416,-0.70555 -0.210542,-0.80512 0.391101,-0.93658 1.210852,-0.26459 0.765288,0.62735 1.470136,4.75276 1.167174,6.83136 -0.555688,3.81253 -3.245667,8.50979 -5.743046,10.02854 -0.615381,0.37423 -1.118874,0.83871 -1.118874,1.03218 0,0.19346 0.606415,1.34673 1.347589,2.562816 0.741175,1.21609 1.909135,3.24295 2.595467,4.50413 0.686333,1.26118 1.984917,3.52794 2.885744,5.03724 0.900827,1.50931 1.637867,2.82959 1.637867,2.93396 0,0.23778 1.596456,2.40935 2.916131,3.96665 0.78646,0.92807 0.911506,1.28279 0.589148,1.6712 -0.225067,0.27119 -0.30771,0.75759 -0.18365,1.08089 0.208688,0.54383 0.258936,0.54217 0.671609,-0.0222 0.409993,-0.5607 0.644446,-0.47959 2.900709,1.00348 1.350066,0.88741 2.822893,1.61379 3.272951,1.61418 0.645976,5.6e-4 0.794548,0.16732 0.705555,0.7919 -0.09427,0.66162 -0.477324,0.86959 -2.339092,1.26994 -2.057374,0.44242 -2.284516,0.42922 -2.992532,-0.17383 -0.659749,-0.56193 -0.699764,-0.56682 -0.288081,-0.0352 0.428849,0.55377 0.379405,0.61736 -0.480079,0.61736 -0.644804,0 -1.015515,-0.2193 -1.133519,-0.67055 z M 69.924162,97.563744 c 2.736747,-1.28074 4.235685,-3.03259 4.848693,-5.66682 0.248336,-1.06716 0.582233,-2.37684 0.741993,-2.91042 0.159761,-0.53358 0.160859,-0.97014 0.0024,-0.97014 -0.158418,0 -0.364328,-1.18883 -0.457577,-2.64184 -0.193573,-3.01629 -1.274569,-5.17369 -3.484665,-6.95455 -2.166992,-1.74612 -7.388866,-2.61853 -10.072926,-1.68286 -0.892726,0.31121 -1.042907,0.548 -1.0628,1.6757 -0.110773,6.2794 -0.09891,19.26675 0.0177,19.38337 0.260874,0.26087 3.51623,0.71939 5.410194,0.76202 1.363517,0.0307 2.419396,-0.22813 4.056945,-0.99446 z M 176.03092,114.51244 c 0,-0.70768 -0.65057,-1.09608 -1.83593,-1.09608 -0.59992,0 -0.64671,0.0882 -0.28073,0.52917 0.64057,0.77185 -0.326,0.6947 -3.52772,-0.28157 l -2.64577,-0.80675 -0.42457,-2.27807 c -0.73666,-3.95264 -0.52562,-7.74611 0.43095,-7.74611 0.29386,0 0.54279,0.77578 0.7075,2.20486 0.49093,4.25977 2.98418,6.15604 9.143,6.95382 2.08573,0.27018 2.77535,0.20995 4.65269,-0.40634 2.18824,-0.71835 2.21076,-0.7394 3.14611,-2.94019 0.8523,-2.00538 0.90035,-2.34313 0.50416,-3.54362 -0.67497,-2.04517 -2.33646,-3.41219 -6.83835,-5.626376 -8.6788,-4.26854 -9.98106,-5.65665 -10.60047,-11.29933 -0.19665,-1.79144 1.6099,-5.64744 2.48798,-5.31049 0.25241,0.0969 0.5448,-0.0936 0.64977,-0.42325 0.10497,-0.32965 1.18466,-1.23436 2.39931,-2.01047 l 2.20846,-1.41111 6.87917,0.0643 c 6.35295,0.0594 6.88622,0.11334 6.97132,0.70556 0.0507,0.3527 -0.0287,2.61283 -0.17639,5.02252 -0.18325,2.98973 -0.40854,4.42761 -0.70933,4.52725 -0.24243,0.0803 -0.4976,-0.0656 -0.56704,-0.3243 -1.49252,-5.5596 -2.94434,-7.00151 -7.04083,-6.99282 -3.05265,0.006 -4.41698,0.37703 -5.69359,1.54636 -1.66902,1.52876 -1.96812,2.50099 -1.38209,4.49254 0.79007,2.68493 2.14603,3.66574 10.36184,7.49499 2.1589,1.00623 4.73472,3.19722 5.59929,4.762766 0.52868,0.95732 0.90281,2.33767 1.01609,3.74892 0.53474,6.66179 -4.82471,11.11165 -13.38295,11.11165 -1.77804,0 -2.05188,-0.0891 -2.05188,-0.66781 z m -22.75416,0.0681 c -5.77211,-0.39843 -11.54229,-3.34054 -14.37049,-7.32724 -2.20775,-3.1121 -3.24143,-6.44008 -3.23571,-10.417466 0.003,-2.02562 0.24433,-4.2585 0.61027,-5.64445 0.6752,-2.55715 2.85081,-6.04278 3.9547,-6.33594 0.39441,-0.10475 1.42628,-0.95327 2.29305,-1.8856 1.93101,-2.07707 2.79532,-2.48022 6.99006,-3.26042 2.73202,-0.50815 4.33506,-0.57095 9.34862,-0.36622 7.70403,0.31459 7.7836,0.33332 7.44847,1.75278 -0.23435,0.99264 -0.48634,4.91203 -0.5073,7.89054 -0.007,0.99464 -0.12842,1.14653 -0.9166,1.14653 -0.77144,0 -0.89888,-0.14638 -0.84456,-0.97014 0.12901,-1.95652 -0.036,-2.46003 -1.28342,-3.91742 -1.86296,-2.17644 -3.61073,-2.93885 -7.20723,-3.14392 -8.55223,-0.48762 -13.49563,4.27023 -13.71077,13.19615 -0.12524,5.196526 1.5524,9.779316 4.86682,13.294566 1.48863,1.57885 2.77166,2.19165 6.3877,3.05094 4.06535,0.96605 5.51234,1.11266 6.50733,0.65931 1.02919,-0.46893 1.18673,-1.51342 0.30287,-2.00805 -0.4941,-0.27651 -0.61089,-0.96983 -0.6715,-3.98628 -0.0404,-2.00835 -0.0895,-3.96905 -0.10918,-4.35711 -0.0197,-0.38805 -0.41182,-1.1755 -0.8714,-1.74989 -0.68617,-0.857586 -1.17475,-1.078376 -2.73227,-1.234716 -1.36614,-0.13713 -1.89669,-0.33841 -1.89669,-0.71955 0,-0.44739 0.94624,-0.53986 6.12267,-0.59836 l 6.12267,-0.0692 -0.19632,0.95113 c -0.8124,3.935886 -0.97463,5.734876 -0.87435,9.695596 l 0.11422,4.51113 -2.14106,0.66116 c -2.99231,0.92403 -6.64874,1.37898 -9.5006,1.18213 z m -68.063628,-0.77498 c -0.276191,-0.44689 0.503514,-0.97483 1.872404,-1.26782 0.733111,-0.15691 1.256365,-0.51085 1.364061,-0.92268 0.0961,-0.36747 0.473703,-0.66812 0.839129,-0.66812 0.558416,0 0.66441,-0.27014 0.66441,-1.69334 0,-0.93133 -0.170494,-1.86382 -0.378875,-2.0722 -0.253805,-0.25381 -0.27878,-1.00495 -0.07566,-2.27542 0.166771,-1.0431 0.284105,-4.67467 0.260743,-8.070146 -0.05727,-8.32418 -0.861811,-11.08693 -3.556484,-12.21284 -0.653739,-0.27315 -1.188617,-0.64388 -1.188617,-0.82386 0,-0.7793 0.784877,-0.66631 2.438266,0.35103 1.962546,1.20757 2.02653,1.36846 2.495978,6.27645 l 0.258737,2.70505 0.04738,-3.175 c 0.05637,-3.77779 -0.388014,-5.68879 -1.397367,-6.00915 -1.39319,-0.44218 -0.330841,-0.56887 5.305177,-0.63268 4.834977,-0.0547 5.671977,0.0132 5.587128,0.45383 -0.05489,0.28502 -0.665078,0.6519 -1.355975,0.8153 -2.610779,0.61743 -3.134993,3.30628 -3.11076,15.956026 0.02009,10.48543 0.138586,11.01181 2.700202,11.99445 1.011615,0.38805 1.788423,0.8643 1.72624,1.05833 -0.141995,0.44307 -14.226026,0.64981 -14.496117,0.21279 z m 15.437448,-0.21279 c 0.0628,-0.19403 0.78361,-0.72543 1.60188,-1.18089 2.73823,-1.52414 2.70349,-1.3527 2.6182,-12.918056 -0.10955,-14.85606 -0.22036,-16.41085 -1.22473,-17.18379 -0.44902,-0.34557 -1.37203,-0.72499 -2.05113,-0.84317 -2.065761,-0.35948 -2.469441,-0.53259 -2.469441,-1.05897 0,-0.41757 0.978721,-0.5054 5.632101,-0.5054 h 5.63211 l 3.94607,5.55625 c 2.17034,3.05594 4.54465,6.27774 5.27626,7.15957 0.84336,1.01653 1.37262,2.04941 1.44613,2.82222 0.0938,0.98582 0.2659,1.22087 0.90014,1.22916 0.93625,0.0122 4.94186,4.117006 5.11502,5.241636 0.0631,0.40993 0.30561,0.70691 0.53888,0.65996 0.23327,-0.0469 0.77529,0.38961 1.2045,0.97014 0.7745,1.04757 1.8117,1.46024 1.54459,0.61454 -0.0766,-0.24254 -0.23961,-3.5366 -0.36224,-7.320136 -0.12263,-3.78355 -0.27334,-8.34532 -0.33491,-10.13727 -0.12874,-3.74718 -0.5863,-4.74359 -2.49529,-5.43389 -0.80412,-0.29077 -1.21718,-0.64872 -1.14959,-0.9962 0.10665,-0.54825 0.0713,-0.54708 11.29443,-0.37542 0.98994,0.0151 0.71086,0.99041 -0.35278,1.23282 -1.56166,0.35592 -2.18455,1.03672 -2.95929,3.23446 -0.70612,2.00305 -0.72158,2.49744 -0.48838,15.61226 0.25971,14.605406 0.31232,14.134356 -1.57941,14.142186 -1.28003,0.005 -2.30329,-0.98388 -7.94231,-7.67777 -0.28048,-0.33294 -1.24416,-1.43329 -2.14151,-2.44522 -0.89735,-1.01193 -2.28966,-2.70086 -3.09401,-3.75318 -0.80435,-1.052316 -3.04995,-3.853456 -4.99023,-6.224756 -1.94028,-2.3713 -3.91054,-4.85574 -4.37837,-5.52096 -0.46782,-0.66523 -0.95687,-1.08427 -1.08678,-0.9312 -0.3753,0.44219 0.28265,21.230686 0.71323,22.535376 0.39561,1.19871 2.19307,2.61376 3.32012,2.61376 0.37959,0 0.55837,0.22443 0.48446,0.60818 -0.10539,0.54725 -0.72652,0.6091 -6.19948,0.61736 -3.89985,0.006 -6.04141,-0.11741 -5.96824,-0.3436 z M 89.122836,75.315174 c -1.856619,-0.92682 -2.178259,-1.23258 -3.085578,-2.93325 -0.596574,-1.11822 -0.785182,-2.05753 -0.77928,-3.88097 0.0089,-2.75431 0.622736,-3.90624 2.609696,-4.89751 0.923416,-0.46067 1.03931,-0.61007 0.497962,-0.64193 -0.388055,-0.0228 0.08819,-0.28608 1.058334,-0.58501 2.52351,-0.77754 5.784833,-0.46396 7.588512,0.72966 3.464748,2.29286 4.036568,8.41214 1.023033,10.94786 -0.564753,0.47521 -1.026823,1.0145 -1.026823,1.19842 0,1.00207 -5.909975,1.04907 -7.885856,0.0627 z m 5.596407,-0.85952 c 1.907515,-0.79701 2.702324,-2.38837 2.566184,-5.13798 -0.14752,-2.97942 -1.521461,-5.21657 -3.661723,-5.96227 -1.83192,-0.63827 -3.113603,-0.30823 -4.608584,1.18676 -1.093748,1.09374 -1.17865,1.34326 -1.17865,3.4639 0,3.41423 1.191074,5.62935 3.527958,6.56119 1.241481,0.49505 1.960106,0.47114 3.354815,-0.1116 z m 24.284207,1.19715 c -0.41149,-0.14628 -0.32154,-0.29325 0.37321,-0.6098 0.50346,-0.22939 0.93563,-0.61891 0.96039,-0.8656 0.0248,-0.2467 0.0914,-0.84541 0.14809,-1.33048 0.17586,-1.50485 0.19158,-7.19431 0.0219,-7.9375 -0.0886,-0.38806 -0.1732,-0.80295 -0.18805,-0.92198 -0.0148,-0.11902 -0.38418,-0.17897 -0.82074,-0.13321 -0.43656,0.0458 -1.07982,0.10346 -1.42946,0.12822 -0.36731,0.026 -0.79148,0.49185 -1.00465,1.10336 -0.20292,0.58208 -0.49705,1.05833 -0.65364,1.05833 -0.25698,0 -0.12732,-2.38648 0.1855,-3.41403 0.0902,-0.29643 1.57656,-0.40204 5.18905,-0.36869 l 5.06258,0.0467 0.0736,1.6916 c 0.0819,1.88233 -0.42405,2.29047 -0.75959,0.61275 -0.20477,-1.02383 -0.29247,-1.0733 -1.71979,-0.97014 l -1.50403,0.10871 -0.0611,4.23334 c -0.0763,5.28467 0.1709,6.66347 1.22204,6.81551 0.42866,0.062 0.77938,0.24789 0.77938,0.4131 0,0.34179 -5.04775,0.63374 -5.87469,0.33977 z m 29.8766,0.0163 c -4.74377,-0.17618 -4.7483,-0.17716 -3.76681,-0.81863 l 0.98268,-0.64224 -0.0921,-5.15696 c -0.0791,-4.42994 -0.1822,-5.24704 -0.73111,-5.79595 -0.35145,-0.35145 -0.639,-0.71837 -0.639,-0.81539 0,-0.097 2.30187,-0.17639 5.11528,-0.17639 5.552,0 5.32825,-0.0947 4.89479,2.07257 -0.24267,1.21337 -0.83785,1.50665 -0.83785,0.41286 0,-0.80845 -1.43763,-1.18669 -3.84009,-1.01033 l -1.53115,0.1124 -0.0341,2.11667 -0.0341,2.11667 2.16184,0.10428 c 1.86013,0.0897 2.26431,-0.006 2.89612,-0.68388 0.80802,-0.8673 0.82796,-0.82768 0.73583,1.46154 -0.0777,1.92965 -0.16767,2.04216 -1.01806,1.27257 -0.50545,-0.45743 -1.16757,-0.57855 -2.72025,-0.49761 l -2.0522,0.10699 -0.0159,1.92894 c -0.0141,1.71098 0.0837,1.97947 0.86601,2.37605 0.48507,0.24591 1.4982,0.44945 2.2514,0.45231 1.11681,0.004 1.58866,-0.22723 2.55764,-1.25464 l 1.18818,-1.25985 v 1.10665 c 0,1.26654 -0.47962,2.32899 -1.13672,2.51806 -0.24793,0.0713 -2.58805,0.0503 -5.20026,-0.0467 z m -47.32932,-0.97014 c 0.55318,-0.7862 0.71545,-1.77572 0.8559,-5.21903 0.1734,-4.25107 -0.2249,-6.51083 -1.14757,-6.51083 -0.2034,0 -0.36981,-0.15875 -0.36981,-0.35278 0,-0.21896 1.94028,-0.35278 5.11528,-0.35278 h 5.11527 v 1.52871 c 0,1.95061 -0.35793,2.30618 -0.93646,0.93026 -0.4506,-1.07167 -0.474,-1.0797 -2.84574,-0.97601 l -2.39141,0.10454 -0.0814,2.20486 -0.0814,2.20487 h 2.26105 c 1.53945,0 2.42993,-0.16888 2.79022,-0.52917 0.29104,-0.29104 0.61988,-0.52917 0.73075,-0.52917 0.26792,0 0.19372,2.42246 -0.10716,3.49853 l -0.23842,0.85269 -0.61649,-0.94088 c -0.54098,-0.82564 -0.84812,-0.94089 -2.5075,-0.94089 -2.11781,0 -2.31193,0.25223 -2.32125,3.01625 -0.005,1.54189 0.4709,2.27541 1.47685,2.27541 0.34925,0 0.635,0.15875 0.635,0.35278 0,0.20762 -1.23824,0.35278 -3.00917,0.35278 h -3.00916 z m 27.56075,0.27682 c 0.87329,-0.67098 0.8816,-0.72856 0.84682,-5.87259 -0.0329,-4.86834 -0.0828,-5.23359 -0.79375,-5.80927 -0.41724,-0.33787 -0.75863,-0.70792 -0.75863,-0.82234 0,-0.11442 1.27,-0.20804 2.82222,-0.20804 1.6463,0 2.82223,0.14699 2.82223,0.35278 0,0.19403 -0.24206,0.35278 -0.5379,0.35278 -0.707,0 -1.22599,1.42844 -1.22599,3.37435 v 1.56454 h 2.42534 c 1.33394,0 2.94666,0.10426 3.58382,0.23169 l 1.15846,0.23169 -0.23006,-2.26016 c -0.16703,-1.64087 -0.42404,-2.42066 -0.93798,-2.84588 -0.38935,-0.32214 -0.70792,-0.67933 -0.70792,-0.79375 0,-0.11442 1.29318,-0.20804 2.87374,-0.20804 h 2.87374 l -0.92195,0.85444 c -0.92102,0.85357 -0.92187,0.85964 -0.84527,6.02608 0.0662,4.46282 0.1613,5.23346 0.69405,5.62265 1.03985,0.75965 0.71898,0.90239 -2.02847,0.90239 -2.4812,0 -3.48319,-0.40429 -1.97772,-0.79798 0.86341,-0.22579 1.22797,-1.89724 0.91312,-4.18648 -0.22022,-1.60119 -0.32133,-1.76055 -1.00129,-1.57811 -0.41599,0.11162 -1.90727,0.2051 -3.31397,0.20775 l -2.55764,0.005 v 2.30909 c 0,1.98126 0.12293,2.43203 0.86591,3.175 l 0.8659,0.86591 -2.89438,-0.008 -2.89438,-0.008 z m -54.856956,-6.93164 c -0.388055,-0.0597 -6.295257,-0.15621 -13.127115,-0.21436 -12.774758,-0.10875 -13.862412,-0.23164 -12.849746,-1.45183 0.228962,-0.27588 0.869399,-0.59222 1.423193,-0.70298 0.599416,-0.11988 1.453493,-0.76525 2.110444,-1.59472 0.895444,-1.13059 1.043836,-1.54967 0.786913,-2.22238 -0.246673,-0.64587 -0.149615,-1.01071 0.439283,-1.65123 0.749783,-0.81551 0.750263,-0.82631 0.05916,-1.33167 -0.61828,-0.4521 -0.641983,-0.59719 -0.210452,-1.28818 0.350102,-0.5606 0.527045,-2.55895 0.631766,-7.135 0.229726,-10.03845 0.123532,-20.01846 -0.225294,-21.17297 -0.257985,-0.85385 -0.674568,-6.66783 -0.876265,-12.22947 -0.03497,-0.9644 -1.389794,-3.11636 -1.961985,-3.11636 -0.175588,0 -0.752311,-0.16465 -1.281607,-0.36589 -0.75415,-0.28672 -0.86979,-0.45845 -0.534505,-0.79375 0.311691,-0.3117 2.913291,-0.43599 9.582447,-0.4578 8.655647,-0.0283 9.154595,0.005 9.154595,0.61737 0,0.46404 -0.263061,0.64729 -0.92921,0.64729 -0.511065,0 -1.560872,0.18925 -2.332904,0.42056 -2.010727,0.60243 -2.956408,2.2141 -3.375727,5.75305 -0.450764,3.80435 -0.478952,34.31635 -0.03196,34.59261 0.187796,0.11606 0.244277,0.72899 0.125512,1.36206 -0.118766,0.63307 -0.03884,1.80872 0.177607,2.61256 0.313281,1.16343 0.291826,1.66055 -0.105195,2.43742 -0.351303,0.68741 -0.401812,1.23368 -0.170859,1.84789 0.445121,1.18379 0.895985,1.40936 2.829553,1.41567 0.910181,0.003 1.757752,0.17186 1.883491,0.37531 0.157891,0.25548 0.374027,0.24923 0.698661,-0.0202 0.258525,-0.21456 1.474705,-0.36159 2.702621,-0.32674 2.118057,0.0601 4.77968,-0.50661 5.936742,-1.26406 0.76726,-0.50228 3.175,-3.28923 3.175,-3.67505 0,-0.18039 -0.357187,-0.43487 -0.79375,-0.5655 -0.436562,-0.13063 -1.924406,-0.78141 -3.306319,-1.44618 -2.842075,-1.36718 -6.209686,-4.57254 -7.536573,-7.17345 -3.044818,-5.96833 -3.146595,-12.91278 -0.263829,-18.00152 0.604542,-1.06715 1.227585,-1.99319 1.384541,-2.05787 0.156956,-0.0647 0.289784,-0.3028 0.295173,-0.52916 0.02603,-1.09327 4.822741,-4.21793 8.132757,-5.29782 3.929475,-1.28199 10.030328,-1.3855 13.232049,-0.22451 1.146815,0.41586 2.511974,0.8886 3.033687,1.05053 1.582012,0.49105 5.313006,3.83047 6.846834,6.12825 1.941552,2.90858 2.599342,4.73537 3.001222,8.3349 0.3537,3.16807 -0.17753,7.13157 -1.22784,9.16079 -1.668884,3.2243 -2.402712,4.29239 -4.054567,5.90138 -1.873926,1.82531 -5.056578,3.59421 -7.866527,4.37218 -0.840535,0.23271 -3.223429,0.44077 -5.29532,0.46236 l -3.767074,0.0393 -0.713193,2.46945 c -0.392256,1.35819 -0.879844,3.10444 -1.083528,3.88055 -0.203684,0.77611 -0.493533,1.60102 -0.644109,1.83312 -0.295031,0.45477 -1.933967,0.77219 -3.077801,0.59609 z m 13.758334,-12.31646 c 2.367783,-0.66595 5.087697,-3.0865 6.336595,-5.63915 2.991266,-6.11393 1.057484,-16.42388 -3.93665,-20.98824 -3.727066,-3.40632 -8.927833,-4.25211 -13.296651,-2.16239 -2.507706,1.19949 -3.716743,2.27309 -4.971981,4.41499 -1.911736,3.26213 -2.402301,7.46116 -1.447482,12.38982 0.48498,2.5034 1.046598,3.83182 2.670919,6.31761 0.875859,1.34037 1.73859,2.70484 1.917179,3.03215 0.178589,0.32731 0.734214,0.7714 1.234722,0.98687 0.500509,0.21546 1.306891,0.71679 1.79196,1.11406 0.574197,0.47026 1.618541,0.79173 2.99289,0.92129 1.16102,0.10944 2.161147,0.24919 2.222505,0.31054 0.197553,0.19756 2.67086,-0.18703 4.485994,-0.69755 z m 42.862502,2.65531 c -3.48393,-0.15148 -4.27372,-0.30049 -5.59174,-1.05505 -2.03164,-1.16309 -4.5133,-4.52063 -6.9771,-9.43958 l -1.98761,-3.96824 -2.68775,0.10546 -2.68775,0.10545 -0.11851,2.62806 c -0.0652,1.44544 0.0706,3.93935 0.30166,5.54203 0.45576,3.16088 1.15594,4.14482 3.24708,4.56305 1.00074,0.20015 1.33282,0.9674 0.53853,1.24426 -0.24254,0.0845 -3.37785,0.12484 -6.96737,0.0896 -5.3213,-0.0523 -6.52639,-0.15514 -6.52639,-0.55694 0,-0.27103 0.33532,-0.54065 0.74516,-0.59915 0.40983,-0.0585 1.20125,-0.58242 1.7587,-1.16427 0.99249,-1.03594 1.01731,-1.15829 1.19512,-5.89086 0.0999,-2.65812 0.31431,-5.03834 0.47653,-5.28937 0.16852,-0.26077 0.13224,-0.65249 -0.0846,-0.91379 -0.24125,-0.29069 -0.36648,-2.63118 -0.34365,-6.42274 0.0399,-6.62822 -0.23513,-9.82406 -0.94231,-10.94944 -0.26681,-0.42458 -1.01688,-0.85299 -1.72653,-0.98613 -0.71001,-0.13319 -1.25478,-0.44445 -1.25478,-0.71691 0,-0.65608 4.59878,-1.07401 11.81805,-1.07401 4.53072,0 6.00436,0.12557 7.4685,0.6364 6.98206,2.436 8.32181,10.71594 2.67566,16.53613 l -1.60096,1.65031 1.49826,2.93156 c 1.88226,3.6829 4.33641,7.52605 5.78107,9.05303 1.26255,1.33449 3.22351,2.28208 4.1283,1.99491 1.3896,-0.44104 1.53936,-1.88375 1.5543,-14.9739 0.0138,-12.03497 -0.0151,-12.59326 -0.72112,-13.94789 -0.55854,-1.07169 -1.08966,-1.53604 -2.20811,-1.93052 -0.80997,-0.28567 -1.41854,-0.68255 -1.35238,-0.88194 0.16743,-0.50462 5.54163,-0.61621 6.13073,-0.1273 0.35388,0.2937 0.63549,0.24289 1.12895,-0.20368 0.43627,-0.39483 0.95516,-0.52027 1.54239,-0.37288 0.49661,0.12464 0.98837,0.0547 1.12064,-0.15926 0.35552,-0.57525 9.06692,-0.48096 11.98572,0.12974 9.23332,1.93186 14.29057,9.9225 12.52945,19.79702 -1.43527,8.04751 -5.88822,12.93197 -13.03222,14.29508 -2.39644,0.45726 -13.68442,0.63178 -20.8139,0.3218 z m 21.46237,-3.74118 c 3.21064,-1.3145 5.40053,-4.37774 6.07403,-8.49638 0.46249,-2.82834 0.54591,-5.47706 0.1906,-6.05197 -0.35747,-0.57841 1.24737,-1.11325 3.34042,-1.11325 0.9575,0 1.74092,-0.15875 1.74092,-0.35278 0,-0.20179 -1.06349,-0.35278 -2.48491,-0.35278 -1.79761,0 -2.46164,-0.12196 -2.40079,-0.44097 0.0463,-0.24253 -0.268,-1.19452 -0.69839,-2.11553 -0.43038,-0.92101 -0.91951,-2.0349 -1.08696,-2.47532 -0.16745,-0.44042 -0.95309,-1.62136 -1.74589,-2.62432 -2.6359,-3.33466 -7.42138,-4.81895 -12.67369,-3.93092 l -2.21703,0.37484 0.10036,13.14537 c 0.0981,12.85595 0.0848,13.15219 -0.6052,13.45542 -1.44077,0.63313 -0.60785,1.02613 2.99861,1.41485 4.15435,0.44777 7.70872,0.28399 9.46792,-0.43626 z m -34.95064,-13.85551 c 1.80628,-0.92149 2.75546,-2.47561 3.15653,-5.16821 0.36151,-2.42709 0.14237,-3.49951 -1.22328,-5.98649 -1.21893,-2.21979 -3.23884,-3.35139 -5.98223,-3.35139 -1.23969,0 -1.87656,0.14793 -1.89842,0.44097 -0.0181,0.24254 -0.0937,1.15535 -0.16794,2.02847 -0.27227,3.20055 -0.32074,12.18253 -0.0678,12.57152 0.42428,0.6526 4.55614,0.29518 6.18317,-0.53487 z m -44.190899,-20 c 0.605827,-0.4573 0.722694,-1.02916 0.826808,-4.04572 l 0.121252,-3.51314 h -1.124418 c -0.827731,0 -1.173102,0.18616 -1.308925,0.70555 -0.101479,0.38806 -0.341726,0.70556 -0.533883,0.70556 -0.192157,0 -0.253017,-0.25111 -0.135244,-0.55802 0.117773,-0.30691 0.214132,-0.86254 0.214132,-1.23472 0,-0.62198 0.285324,-0.67671 3.527778,-0.67671 h 3.527778 v 1.05834 c 0,0.58208 -0.15875,1.05833 -0.352778,1.05833 -0.194028,0 -0.352778,-0.32805 -0.352778,-0.72899 0,-0.58713 -0.188777,-0.70727 -0.970139,-0.61736 -0.964009,0.11092 -0.970796,0.13057 -1.074227,3.11024 -0.119957,3.45575 0.08126,4.58611 0.816365,4.58611 0.287345,0 0.522446,0.15875 0.522446,0.35277 0,0.19876 -0.962659,0.34788 -2.204861,0.34156 -2.043633,-0.0104 -2.153268,-0.0502 -1.499306,-0.5438 z m 6.173611,0.14345 c 0,-0.12935 0.198438,-0.30134 0.440973,-0.3822 0.314843,-0.10496 0.440972,-1.18967 0.440972,-3.79237 0,-2.60272 -0.126127,-3.68741 -0.440972,-3.79234 -1.057937,-0.35261 -0.292324,-0.79374 1.377593,-0.79374 1.73945,0 1.793165,0.0281 1.234722,0.64514 -0.321114,0.35483 -0.583843,1.22795 -0.583843,1.94028 v 1.29514 h 2.116667 c 1.164167,0 2.235729,-0.0397 2.38125,-0.0882 0.45455,-0.15152 0.06441,-2.52672 -0.521515,-3.175 -0.525285,-0.58119 -0.437145,-0.61736 1.504404,-0.61736 1.848379,0 1.992708,0.051 1.39093,0.49097 -0.576469,0.42153 -0.673151,0.96302 -0.683469,3.82793 -0.0084,2.32043 0.135069,3.51417 0.470831,3.91874 0.438563,0.52844 0.309017,0.58082 -1.41243,0.57108 -1.459383,-0.008 -1.753292,-0.0934 -1.277918,-0.37031 0.457653,-0.26656 0.617361,-0.81571 0.617361,-2.12278 v -1.76319 l -2.204861,0.10503 -2.204861,0.10503 -0.107671,1.67929 c -0.08104,1.26391 0.02804,1.73137 0.440973,1.88983 1.035324,0.39729 0.546962,0.66421 -1.215247,0.66421 -0.970139,0 -1.763889,-0.10583 -1.763889,-0.23518 z m 10.936112,0.12935 c 0,-0.15522 0.167974,-0.4502 0.373275,-0.65549 0.528869,-0.52887 0.498182,-7.08037 -0.03618,-7.72424 -0.364471,-0.43916 0.04956,-0.51027 2.971099,-0.51027 h 3.394585 v 1.05834 c 0,0.58208 -0.15875,1.05833 -0.352777,1.05833 -0.194028,0 -0.352778,-0.23813 -0.352778,-0.52917 0,-0.3983 -0.427056,-0.52916 -1.726835,-0.52916 h -1.726835 l -0.13178,1.38184 c -0.130923,1.37286 -0.122939,1.38269 1.227691,1.51149 0.77206,0.0736 1.65136,-0.0748 2.035004,-0.34351 0.627593,-0.43959 0.675533,-0.38412 0.675533,0.78156 0,1.20579 -0.425329,1.64077 -0.881945,0.90195 -0.119916,-0.19403 -0.825642,-0.35278 -1.56828,-0.35278 -1.252254,0 -1.362961,0.0832 -1.525369,1.14653 -0.231287,1.51428 0.247392,2.02847 1.88838,2.02847 0.93877,0 1.574823,-0.23684 2.073471,-0.77207 l 0.719298,-0.77208 v 0.87791 c 0,0.48285 -0.1905,1.0684 -0.423333,1.30124 -0.476054,0.47605 -6.632223,0.60703 -6.632224,0.14111 z"
       id="path1" /></g></svg>
