<?xml version="1.0" encoding="UTF-8" standalone="no"?>
<!-- Generator: Adobe Illustrator 13.0.0, SVG Export Plug-In . SVG Version: 6.00 Build 14948)  -->
<!DOCTYPE svg PUBLIC "-//W3C//DTD SVG 1.0//EN" "http://www.w3.org/TR/2001/REC-SVG-20010904/DTD/svg10.dtd">
<svg
    version="1.0"
    id="Layer_1"
    xmlns="http://www.w3.org/2000/svg"
    xmlns:xlink="http://www.w3.org/1999/xlink"
    x="0px"
    y="0px"
    width="693.615px"
    height="419.375px"
    viewBox="0 0 693.615 419.375"
    enable-background="new 0 0 693.615 419.375"
    xml:space="preserve">
<g id="Layer_1">
	
</g>
<g id="Layer_2">
    <path
        fill="#ffde00"
        d="m 587.66908,352.01671 c 23.85077,1e-5 43.27513,-19.42435 43.27513,-43.27514 0,-15.65778 -7.71268,-27.66023 -15.02509,-36.21069 -3.65829,-4.27768 -5.96883,-6.46419 -7.71709,-8.21247 -1.14681,-1.14682 -4.22459,-4.008 -5.10609,-4.8895 -0.52849,-0.5285 -0.13213,-1.40669 0.58269,-1.40669 H 666.567 c 0.39625,0 0.71752,-0.32126 0.71752,-0.71751 v -44.39697 c 0,-0.39625 -0.32127,-0.71797 -0.71752,-0.71751 l -78.31494,0.0904 c -24.61827,0.0284 -44.66532,20.04521 -44.66532,44.66532 0,12.80333 7.3344,22.98933 14.05741,30.74104 3.36199,3.87641 6.48017,7.27257 8.73912,9.94781 1.18745,1.4063 1.86963,2.2706 2.91207,3.6692 0.64674,0.86771 0.13342,1.7423 -0.72171,1.7423 l -67.88798,-3e-5 c -3.26079,0 -4.86522,-0.68873 -5.48487,-1.53342 -1.04298,-1.42175 -0.67654,-1.66635 -0.48834,-1.79103 3.83505,-2.54066 6.92894,-4.83288 11.24677,-9.74988 5.86385,-6.67755 10.77915,-16.04323 10.80477,-28.03915 0.0585,-27.4279 -22.31576,-49.74187 -49.73277,-49.74187 h -87.4731 c -0.39624,0 -0.71751,0.32126 -0.71751,0.71751 v 138.39073 c 0,0.39625 0.32127,0.71752 0.71751,0.71752 h 54.65098 c 0.39625,0 0.71752,-0.32127 0.71752,-0.71752 v -34.05815 l 17.5511,18.48585 c 7.61829,8.02403 15.86354,16.28981 36.5316,16.28982 z m -98.65977,-8.61022 c -9.32924,0 -14.95883,-1.41119 -19.21735,-3.78238 -4.25856,-2.37119 -7.18936,-5.77107 -11.06965,-9.82518 l -29.03102,-30.33157 c -1.22214,-1.27691 -3.37487,-0.42106 -3.37487,1.3465 v 42.59263 H 387.45078 V 220.8011 h 79.58043 c 22.76392,0 41.17127,18.36079 41.12259,41.11347 -0.0208,9.69814 -3.75917,16.90907 -8.66346,22.3754 -6.05418,6.74799 -11.10839,9.6362 -18.52463,13.2523 -0.43607,0.21262 -0.59238,0.72844 -0.45583,1.19396 2.62355,8.9439 7.50424,12.92022 19.01131,12.92022 l 69.05244,10e-6 c 5.27567,0 9.63322,-4.35584 9.63322,-9.6332 0,-4.22834 -2.52562,-7.03528 -5.09408,-10.04521 -2.60124,-3.04834 -5.8241,-6.31282 -8.96334,-9.9324 -6.27743,-7.23799 -11.95251,-15.65085 -11.95251,-25.09972 0,-19.96748 16.08938,-36.0305 36.05514,-36.05513 l 70.42228,-0.0869 v 28.60811 h -54.99571 c -5.10777,0 -9.32769,4.21908 -9.32769,9.3277 0,2.34516 1.05593,3.91327 2.01801,5.24403 0.98845,1.36724 2.18831,2.6722 3.54693,4.09418 2.72049,2.84737 6.12044,6.14498 9.46015,10.05011 6.68081,7.81196 12.958,17.77403 12.958,30.61351 0,19.19783 -15.46715,34.66494 -34.66495,34.66494 z m -61.97537,-95.46804 c -0.39625,0 -0.71752,0.32125 -0.71752,0.71751 v 29.11822 c 0,0.39625 0.32127,0.71751 0.71752,0.71751 h 33.97265 c 8.39073,0 15.27662,-6.8859 15.27662,-15.27662 0,-8.39072 -6.88589,-15.27662 -15.27662,-15.27662 z m 7.89267,8.61017 h 26.07998 c 3.74181,0 6.66644,2.92466 6.66644,6.66645 0,3.74179 -2.92463,6.66644 -6.66644,6.66644 h -26.07998 z"/>

    <path
        fill="#ffde00"
        d="m 250.41556,212.19091 c -0.31406,0 -0.59126,0.20415 -0.68528,0.50381 -14.36759,45.7959 -43.10346,138.39073 -43.10346,138.39073 -0.14489,0.46184 0.20125,0.93123 0.68528,0.93123 h 53.02884 c 0.31428,0 0.58949,-0.20521 0.6853,-0.50451 l 5.8207,-18.18232 h 43.6444 l 5.82142,18.18302 c 0.0958,0.29911 0.37121,0.50381 0.68526,0.50381 h 51.86682 c 0.48404,0 0.82938,-0.46915 0.68527,-0.93123 -0.11473,-0.36792 -28.46582,-92.59492 -42.69885,-138.39073 -0.0932,-0.29992 -0.37124,-0.50381 -0.68529,-0.50381 z m 5.80878,8.61018 h 64.13284 l 37.78207,122.6054 h -35.33244 l -5.39143,-17.67921 c -0.18322,-0.60082 -0.74248,-1.00761 -1.37059,-1.00761 h -54.62464 c -0.62812,0 -1.18345,0.408 -1.3706,1.00761 l -5.51808,17.67921 H 218.037 Z m 33.29791,23.85601 c -0.63443,-0.0174 -1.20851,0.37132 -1.43069,0.96585 l -20.56144,55.0204 c -0.17495,0.46815 0.17289,0.96696 0.67267,0.96696 h 41.86393 c 0.4963,0 0.84402,-0.49246 0.67547,-0.95926 L 290.8776,245.63888 c -0.20757,-0.57484 -0.74442,-0.96507 -1.35535,-0.98178 z m -0.16248,20.70528 9.50256,27.63775 h -19.31756 z"/>
    <path
        fill="#ffde00"
        d="m 34.234256,212.19091 c -0.481948,0 -0.826779,0.4661 -0.685984,0.92703 l 42.273131,138.39073 c 0.09216,0.30171 0.370514,0.50801 0.685984,0.50801 h 39.868333 c 0.32091,0 0.60337,-0.21309 0.69019,-0.52203 l 14.29635,-50.86829 14.29705,50.86829 c 0.0868,0.30894 0.36928,0.52203 0.69019,0.52203 h 39.86693 c 0.31547,0 0.59383,-0.2063 0.68599,-0.50801 l 42.27313,-138.39073 c 0.14066,-0.46097 -0.20403,-0.92679 -0.68598,-0.92703 h -51.4677 c -0.323,1.8e-4 -0.60608,0.21615 -0.69159,0.52763 l -7.79317,28.37058 -9.06984,-28.39931 c -0.0949,-0.29718 -0.37122,-0.4989 -0.68318,-0.4989 h -54.84436 c -0.31241,0 -0.58885,0.202 -0.68388,0.4996 l -9.068442,28.39791 -7.792465,-28.36988 c -0.08555,-0.31147 -0.368584,-0.52763 -0.691591,-0.52763 z m 10.663227,8.61018 h 34.788973 l 12.55231,48.18738 c 0.359282,1.37925 2.333704,1.42074 2.74954,0.0575 L 109.70438,220.8011 h 43.31507 l 14.71677,48.24484 c 0.41585,1.36327 2.39023,1.32177 2.74953,-0.0575 l 12.55301,-48.18738 h 34.78758 l -37.45163,122.6054 h -28.05947 l -19.81885,-69.05637 c -0.33974,-1.18378 -1.93808,-1.1505 -2.26826,0 l -19.81815,69.05637 H 82.349112 Z"/>
    <path
        fill="#ffde00"
        d="m 483.21175,63.756394 c -0.39625,0 -0.71751,0.32126 -0.71751,0.717515 V 202.86464 c 0,0.39626 0.32126,0.71752 0.71751,0.71752 h 54.65098 c 0.39624,0 0.71751,-0.32126 0.71751,-0.71752 v -34.05815 l 17.5511,18.48583 c 7.61833,8.02404 15.86355,16.28984 36.53161,16.28984 H 666.567 c 0.39625,-4e-5 0.71748,-0.32126 0.71752,-0.71752 v -47.53538 c 0,-0.39627 -0.32123,-0.71751 -0.71752,-0.71751 h -62.22761 c -3.26078,0 -4.86543,-0.68844 -5.48508,-1.53313 -1.04298,-1.42175 -0.67658,-1.667 -0.48837,-1.79169 3.83504,-2.54065 6.92907,-4.83251 11.2469,-9.74951 5.86386,-6.67755 10.77916,-16.04323 10.80477,-28.03915 0.0585,-27.427905 -22.31576,-49.741876 -49.73276,-49.741876 z m 7.89267,8.610182 h 79.58043 c 22.76392,0 41.17127,18.360796 41.12258,41.113474 -0.0208,9.69814 -3.75917,16.90907 -8.66345,22.3754 -6.05418,6.74799 -11.10811,9.63621 -18.52434,13.25231 -0.43607,0.21263 -0.59271,0.72847 -0.45616,1.19399 2.62355,8.9439 7.50427,12.92018 19.01135,12.92018 h 55.49951 v 31.75005 h -66.01139 c -9.32924,0 -14.95883,-1.41118 -19.21736,-3.78237 -4.25856,-2.37121 -7.18935,-5.77109 -11.06964,-9.8252 l -29.03134,-30.33183 c -1.22218,-1.27691 -3.37455,-0.42081 -3.37455,1.34674 v 42.59266 h -38.86564 z m 39.58316,27.137344 c -0.39625,0 -0.71752,0.321261 -0.71752,0.71752 v 29.11822 c 0,0.39625 0.32127,0.71752 0.71752,0.71752 h 33.97265 c 8.39073,0 15.27662,-6.88591 15.27662,-15.27663 0,-8.39072 -6.88589,-15.27663 -15.27662,-15.27663 z m 7.89266,8.61018 h 26.07999 c 3.74181,0 6.66643,2.92466 6.66643,6.66645 0,3.74179 -2.92462,6.66644 -6.66643,6.66644 h -26.07999 z"/>
	<path
        fill="#ffde00"
        d="m 357.69424,64.759586 c -0.31405,0 -0.59126,0.204144 -0.68527,0.503804 L 313.90551,202.6509 c -0.14489,0.46184 0.20125,0.93122 0.68528,0.93122 h 53.02884 c 0.31427,0 0.58948,-0.2052 0.6853,-0.5045 l 5.8207,-18.18232 h 43.6444 l 5.82141,18.18302 c 0.0958,0.2991 0.37121,0.5038 0.68527,0.5038 h 51.8668 c 0.48404,0 0.82891,-0.469 0.68526,-0.93122 L 434.12995,65.26339 c -0.0932,-0.299918 -0.37124,-0.503804 -0.6853,-0.503804 z m 5.80879,8.610182 h 64.13283 l 37.78205,121.602172 h -35.33242 l -5.39144,-17.67922 c -0.18713,-0.59961 -0.74248,-1.00786 -1.3706,-1.0076 h -54.6246 c -0.62812,-2.6e-4 -1.18347,0.40799 -1.3706,1.0076 l -5.51809,17.67922 h -36.49448 z m 33.29791,22.852782 c -0.63443,-0.01736 -1.20851,0.371318 -1.43069,0.965847 L 374.80881,152.2088 c -0.17497,0.46814 0.17289,0.96696 0.67267,0.96696 h 41.86392 c 0.49631,0 0.84402,-0.49246 0.67547,-0.95926 L 398.15629,97.20433 c -0.20758,-0.574838 -0.74443,-0.965069 -1.35535,-0.98178 z m -0.16249,20.70527 9.50256,27.63776 h -19.31755 z"/>
    <path
        fill="#ffde00"
        d="m 334.62656,63.754292 -182.51791,0.09039 c -24.61828,0.0122 -44.66532,20.045209 -44.66532,44.665318 0,12.80333 7.33442,22.98933 14.05741,30.74104 3.36198,3.87641 6.48018,7.27257 8.73911,9.94781 1.18746,1.4063 1.86969,2.27026 2.91211,3.66886 0.64674,0.86772 0.13338,1.74264 -0.72172,1.74264 H 33.89803 c -0.396256,4e-5 -0.717476,0.32126 -0.717515,0.71751 v 47.53538 c 3.9e-5,0.39625 0.321259,0.71747 0.717515,0.71751 h 117.62764 c 23.85076,0 43.27513,-19.42433 43.27513,-43.27513 0,-15.65779 -7.71268,-27.66025 -15.02508,-36.21069 -3.65831,-4.27769 -5.96851,-6.46391 -7.71678,-8.21218 -1.14683,-1.14683 -4.22521,-4.00799 -5.1067,-4.88947 -0.52851,-0.52852 -0.13185,-1.40701 0.58298,-1.40701 h 58.58329 v 93.27697 c 4e-5,0.39625 0.32126,0.71747 0.71752,0.71751 h 49.28572 c 0.39626,-4e-5 0.71748,-0.32126 0.71752,-0.71751 v -93.27697 h 57.78729 c 0.39626,0 0.71752,-0.32126 0.71752,-0.71751 V 64.471807 c 0,-0.396255 -0.32126,-0.717713 -0.71752,-0.717515 z m -7.89266,8.613683 v 28.608115 h -57.7873 c -0.39625,0 -0.71751,0.32126 -0.71751,0.71751 v 93.27697 H 234.7287 V 101.6936 c 0,-0.39627 -0.32125,-0.71751 -0.71752,-0.71751 h -66.47596 c -5.10776,0 -9.32769,4.21907 -9.32769,9.3277 0,2.34515 1.05594,3.91327 2.01801,5.24402 0.98845,1.36725 2.18833,2.67221 3.54694,4.09418 2.72047,2.84738 6.12044,6.145 9.46012,10.05012 6.68086,7.81198 12.95802,17.77402 12.95802,30.61351 0,19.19783 -15.46715,34.66495 -34.66495,34.66495 H 41.790697 v -31.75004 h 90.639543 c 5.27565,0 9.6332,-4.35585 9.6332,-9.6332 0,-4.22834 -2.52563,-7.03528 -5.09408,-10.04521 -2.60122,-3.04834 -5.82411,-6.31283 -8.96333,-9.93241 -6.27745,-7.23799 -11.95252,-15.65084 -11.95252,-25.09971 0,-19.967483 16.0894,-36.045204 36.05514,-36.055138 z"/>
</g>
</svg>
