<svg xmlns="http://www.w3.org/2000/svg" width="509" height="99" viewBox="0 0 509 99" version="1.1">
	<path d="M 96.015 3.714 C 96.027 5.070, 96.234 5.180, 96.874 4.170 C 97.353 3.414, 98.966 2.982, 100.609 3.170 C 103.445 3.494, 103.506 3.628, 103.796 10.265 C 104.070 16.521, 103.919 17.100, 101.796 17.952 C 100.384 18.519, 159.744 18.810, 256 18.710 C 342.075 18.619, 403.820 18.413, 393.210 18.251 C 377.868 18.017, 373.811 17.672, 373.387 16.567 C 372.943 15.409, 372.379 15.450, 370.008 16.810 C 367.820 18.066, 366.509 18.213, 364.331 17.447 C 361.617 16.492, 361.500 16.183, 361.500 9.975 L 361.500 3.500 366.750 3.543 C 369.637 3.566, 372 3.229, 372 2.793 C 372 2.357, 368.288 2.007, 363.750 2.015 C 359.033 2.024, 356.056 2.384, 356.799 2.855 C 357.712 3.434, 358.010 5.737, 357.799 10.590 L 357.500 17.500 301.613 17.758 C 261.291 17.945, 245.347 17.703, 244.368 16.890 C 242.863 15.641, 242.753 6.695, 244.207 3.750 C 244.955 2.234, 244.564 2.011, 241.285 2.079 C 239.203 2.122, 238.063 2.385, 238.750 2.662 C 239.437 2.940, 240 4.704, 240 6.583 L 240 10 234 10 L 228 10 228 6.583 C 228 4.704, 228.562 2.940, 229.250 2.662 C 229.938 2.385, 228.700 2.129, 226.500 2.094 C 224.038 2.055, 223 2.348, 223.799 2.855 C 224.712 3.434, 225.010 5.737, 224.799 10.590 L 224.500 17.500 167.112 17.758 C 124.521 17.950, 109.362 17.716, 108.319 16.850 C 107.325 16.025, 106.999 13.897, 107.206 9.591 C 107.492 3.667, 107.581 3.491, 110.451 3.164 C 112.432 2.939, 113.858 3.431, 114.791 4.664 C 116.121 6.422, 116.165 6.415, 115.828 4.500 C 115.509 2.685, 114.576 2.474, 105.738 2.214 C 96.944 1.955, 96.001 2.101, 96.015 3.714 M 365.336 8.567 C 365.005 9.429, 365.244 10.644, 365.867 11.267 C 366.711 12.111, 367 11.711, 367 9.700 C 367 6.691, 366.251 6.182, 365.336 8.567 M 228 13.893 C 228 17.198, 229.388 18, 235.107 18 C 238.426 18, 239.205 17.592, 240.032 15.416 C 241.462 11.655, 240.558 11, 233.941 11 C 228.055 11, 228 11.027, 228 13.893 M 1.520 30.968 C 1.113 31.626, 2.739 32, 6.007 32 C 11.287 32, 15 33.285, 15 35.112 C 15 35.685, 13.538 36.073, 11.750 35.975 C 6.980 35.714, 6 35.889, 6 37 C 6 37.550, 7.714 38, 9.809 38 C 17.535 38, 17.461 37.746, 17.815 65.494 C 18.175 93.691, 18.033 94.312, 10.943 95.510 C 4.387 96.617, 7.773 98.131, 16.060 97.797 L 23.425 97.500 23.133 88.358 C 22.948 82.585, 23.239 78.971, 23.920 78.549 C 24.607 78.125, 25 72.984, 25 64.441 C 25 52.244, 25.685 48.772, 27.404 52.250 C 27.744 52.938, 28.805 54.690, 29.761 56.144 C 32.908 60.929, 47.476 84.090, 48.634 86.151 C 50.323 89.154, 51.400 89.998, 52.541 89.208 C 53.786 88.347, 61.177 77.060, 72.274 59.074 C 76.830 51.689, 81.032 45.489, 81.613 45.296 C 82.642 44.953, 82.676 46.737, 82.172 75.179 C 81.969 86.593, 81.119 88, 74.429 88 C 71.993 88, 70 88.468, 70 89.039 C 70 89.700, 73.179 89.973, 78.750 89.789 L 87.500 89.500 87.524 67.500 L 87.547 45.500 116.350 45.235 L 145.152 44.969 141.826 51.235 C 139.997 54.681, 138.162 57.650, 137.750 57.833 C 137.337 58.017, 137 58.587, 137 59.101 C 137 59.616, 135.312 62.842, 133.250 66.271 C 131.188 69.701, 128.600 74.221, 127.500 76.317 C 123.994 82.997, 120.309 86.720, 116.495 87.435 C 114.542 87.801, 113.171 88.468, 113.448 88.916 C 114.137 90.031, 135.875 90.011, 136.565 88.895 C 136.869 88.403, 136.292 88, 135.282 88 C 132.131 88, 128.999 85.097, 129.016 82.193 C 129.025 80.712, 130.052 77.700, 131.298 75.500 L 133.564 71.500 147.532 71.500 L 161.500 71.500 164.835 77.807 C 166.669 81.276, 167.931 84.739, 167.638 85.502 C 167.345 86.265, 165.506 87.190, 163.553 87.556 C 161.599 87.923, 160 88.675, 160 89.228 C 160 89.851, 163.512 90.115, 169.250 89.922 C 186.929 89.329, 236.518 90.128, 234.500 90.974 C 233.400 91.435, 230.925 92.258, 229 92.804 C 226.004 93.653, 226.824 93.811, 234.690 93.898 L 243.879 94 244.190 90.250 L 244.500 86.500 253.201 86.734 C 258.096 86.865, 262.168 86.537, 262.510 85.984 C 262.849 85.435, 261.965 85, 260.509 85 C 259.075 85, 256.613 84.334, 255.040 83.521 C 252.439 82.175, 252.149 81.489, 251.840 75.934 C 251.653 72.575, 251.687 69.641, 251.917 69.413 C 252.146 69.186, 265.334 69, 281.224 69 L 310.114 69 309.995 78.750 C 309.930 84.112, 309.904 89.063, 309.938 89.750 C 310.009 91.187, 322 91.576, 322 90.142 C 322 89.670, 320.087 88.882, 317.750 88.389 L 313.500 87.495 313.216 76.747 L 312.932 66 315.835 66 C 318.181 66, 321.083 68.255, 330.958 77.750 C 337.679 84.213, 344.600 90.135, 346.339 90.911 C 348.823 92.020, 355.223 92.302, 376.234 92.230 C 390.938 92.179, 403.433 91.851, 404 91.500 C 405.767 90.408, 404.212 89.290, 399.991 88.615 C 396.876 88.116, 395.713 87.377, 394.969 85.418 C 393.688 82.049, 393.706 41.418, 394.990 39.019 C 395.594 37.891, 397.951 36.747, 401.039 36.085 C 407.973 34.598, 429.906 34.737, 432.661 36.285 C 435.708 37.998, 454 54.966, 454 56.080 C 454 56.586, 452.875 57, 451.500 57 C 448.163 57, 448.333 57.732, 452.709 62.214 L 456.417 66.012 445.085 77.049 C 434.056 87.791, 428.147 92, 424.099 92 C 423.009 92, 421.840 92.450, 421.500 93 C 421.098 93.651, 426.056 93.976, 435.691 93.932 C 449.870 93.868, 450.762 93.569, 443.500 91.322 C 438.638 89.817, 439.948 86.616, 449.256 77.250 C 453.766 72.712, 457.956 69, 458.568 69 C 460.053 69, 479.500 88.755, 479.500 90.263 C 479.500 90.913, 477.525 91.782, 475.112 92.194 C 472.698 92.606, 470.486 93.181, 470.195 93.471 C 469.905 93.762, 477.868 94, 487.892 94 C 499.788 94, 505.903 93.653, 505.500 93 C 505.160 92.450, 503.896 91.984, 502.691 91.965 C 499.084 91.906, 496.857 90.139, 481.518 75.170 C 467.214 61.209, 466.881 60.789, 468.609 58.879 C 470.333 56.975, 470.190 56.729, 463.585 50.254 C 459.847 46.588, 455.712 42.178, 454.397 40.453 L 452.006 37.318 454.550 36.159 C 455.949 35.522, 458.273 35, 459.714 35 C 461.155 35, 462.134 34.801, 461.890 34.557 C 460.972 33.639, 411.691 32.977, 392.282 33.622 C 373.064 34.260, 369.011 34.952, 376.134 36.377 C 382.091 37.568, 382 37.162, 382 62.599 C 382 89.655, 382.477 88.458, 371.213 89.635 C 362.615 90.534, 356.807 88.693, 350.487 83.066 C 347.667 80.555, 341.933 75.575, 337.745 72 C 333.557 68.425, 330.101 65.221, 330.065 64.880 C 330.029 64.539, 332.037 63.690, 334.526 62.993 C 337.015 62.296, 339.358 61.230, 339.732 60.625 C 340.106 60.020, 340.565 54.934, 340.753 49.323 C 341.061 40.138, 340.907 39.020, 339.202 38.108 C 336.576 36.703, 320.247 35.586, 314.633 36.428 L 310 37.123 310 52.061 L 310 67 280.750 67.001 L 251.500 67.003 251.786 52.251 C 251.944 44.138, 252.267 36.938, 252.505 36.250 C 252.802 35.392, 255.411 35, 260.821 35 C 267.352 35, 269.280 35.388, 272.060 37.261 C 273.905 38.505, 275.672 40.609, 275.985 41.937 C 276.299 43.265, 277.105 44.535, 277.778 44.759 C 279.422 45.307, 279.442 34.842, 277.800 33.200 C 275.891 31.291, 242.607 31.536, 240.670 33.473 C 239.533 34.610, 235.811 35.009, 224.349 35.223 L 209.500 35.500 209.202 42.349 C 208.973 47.614, 209.204 49.100, 210.202 48.772 C 210.916 48.538, 211.643 46.893, 211.818 45.117 C 212.331 39.892, 216.518 38.008, 227.628 38.004 C 234.156 38.001, 237.080 38.392, 237.896 39.375 C 238.697 40.340, 238.957 47.722, 238.769 64.125 L 238.500 87.500 211.899 87.500 C 191.831 87.500, 184.695 87.177, 182.844 86.185 C 181.494 85.462, 179 82.537, 177.302 79.685 C 172.817 72.154, 169 65.199, 169 64.558 C 169 64.251, 170.345 64, 171.990 64 L 174.980 64 170.240 54.750 C 167.633 49.663, 165.162 45.350, 164.750 45.167 C 164.338 44.983, 164 44.308, 164 43.667 C 164 42.792, 154.502 42.587, 126.071 42.849 L 88.141 43.198 87.821 39.849 C 87.549 37.015, 87.068 36.450, 84.690 36.178 C 83.144 36.001, 81.249 36.379, 80.478 37.018 C 79.203 38.076, 66.935 57.286, 61.101 67.358 C 59.782 69.636, 58.319 71.650, 57.851 71.833 C 57.383 72.017, 57 72.804, 57 73.583 C 57 74.362, 56.438 74.999, 55.750 74.999 C 54.615 74.998, 51.980 71.099, 35.292 44.730 C 31.922 39.405, 29.287 36.311, 27.828 35.964 C 26.494 35.646, 25.336 34.421, 24.993 32.964 C 24.425 30.550, 24.188 30.494, 13.285 30.218 C 6.409 30.044, 1.914 30.330, 1.520 30.968 M 482.559 34 C 479.838 34.469, 479.946 34.576, 484.330 35.746 C 491.509 37.662, 490.752 39.910, 478.604 52.750 C 475.435 56.100, 474.975 57, 476.432 57 C 477.448 57, 482.605 52.758, 487.890 47.573 C 494.685 40.907, 498.964 37.555, 502.500 36.127 C 505.250 35.017, 507.050 34.056, 506.500 33.991 C 503.026 33.580, 484.955 33.587, 482.559 34 M 313 50.500 L 313 63 319.453 63 C 326.319 63, 330.112 61.842, 333.750 58.635 C 336.447 56.257, 336.833 49.512, 334.527 45.053 C 332.439 41.015, 325.667 38, 318.684 38 L 313 38 313 50.500 M 146.200 49.200 C 145.540 49.860, 145 50.771, 145 51.225 C 145 51.678, 143.250 54.850, 141.112 58.275 C 138.974 61.699, 136.919 65.513, 136.545 66.750 C 135.867 68.993, 135.902 69, 147.433 69 C 154.300 69, 159 68.603, 159 68.023 C 159 67.485, 157.695 64.672, 156.101 61.773 C 147.537 46.199, 148.270 47.130, 146.200 49.200" stroke="none" fill="#4AE84A" fill-rule="evenodd"/>
</svg>